# xmcd
# Copyright (C) 1995-1998 Ti Kan
#
# Track frame offsets:
#       150
#       9424
#       16955
#       39980
#       54390
#       63857
#       80808
#       91623
#       105628
#       111475
#       121281
#       136234
#       146965
#       157552
#       176451
#
# Disc length: 2873 seconds
#
# Revision: 0
# Processed by: cddbd v1.5.2PL0 Copyright (c) Steve Scherf et al.
# Submitted via: CD-Import v1.0
#
DISCID=b60b370f
DTITLE=Ganz - Tomaten Und Beeren
DYEAR=1900
DGENRE=
TTITLE0=Für Chrigi
TTITLE1=Blood'n'rain
TTITLE2=Koboi
TTITLE3=Elö
TTITLE4=Brunzli
TTITLE5=Cigarette Song
TTITLE6=Non Fumare
TTITLE7=Happy Hippie
TTITLE8=Tabasco
TTITLE9=Konversation
TTITLE10=Jogger
TTITLE11=Chatz
TTITLE12=Engel
TTITLE13=Sheepville
TTITLE14=Aaah !
EXTD=
EXTT0=
EXTT1=
EXTT2=
EXTT3=
EXTT4=
EXTT5=
EXTT6=
EXTT7=
EXTT8=
EXTT9=
EXTT10=
EXTT11=
EXTT12=
EXTT13=
EXTT14=
PLAYORDER=
